<svg width="340" height="170" viewBox="0 0 680 340" xmlns="http://www.w3.org/2000/svg" role="img">
<title>Escale à La Cotinière — Île d'Oléron</title>
<defs>
<path id="topArcLogo" d="M 224 170 A 116 116 0 0 1 456 170" fill="none"/>
<path id="bottomArcLogo" d="M 215 170 A 125 125 0 0 0 465 170" fill="none"/>
</defs>

<circle cx="340" cy="170" r="150" fill="#082f3a" stroke="#d8b66a" stroke-width="2.5"/>
<circle cx="340" cy="170" r="138" fill="none" stroke="#d8b66a" stroke-width="1"/>

<g transform="translate(340,0) scale(1.35,1) translate(-340,0)">
<circle cx="385" cy="60" r="3" fill="none" stroke="#d8b66a" stroke-width="1.8"/>
<path d="M 377 82 Q 377 60 385 60 Q 393 60 393 82" fill="none" stroke="#d8b66a" stroke-width="1.8"/>
<rect x="374" y="82" width="22" height="18" fill="none" stroke="#d8b66a" stroke-width="1.8"/>
<circle cx="385" cy="91" r="5" fill="#b3392c"/>

<path d="M 365 214 L 377 100 L 393 100 L 405 214 Z" fill="none" stroke="#d8b66a" stroke-width="2" stroke-linejoin="round"/>
<rect x="374" y="125" width="22" height="12" fill="#b3392c"/>
<rect x="370" y="165" width="31" height="12" fill="#b3392c"/>

<rect x="354" y="138" width="9" height="28" fill="none" stroke="#d8b66a" stroke-width="1.8"/>
<line x1="352" y1="138" x2="365" y2="138" stroke="#d8b66a" stroke-width="1.8"/>
<path d="M 270 177 L 370 177 L 320 136 Z" fill="none" stroke="#d8b66a" stroke-width="2" stroke-linejoin="round"/>
<rect x="275" y="177" width="90" height="37" fill="none" stroke="#d8b66a" stroke-width="2"/>
<line x1="275" y1="183" x2="365" y2="183" stroke="#d8b66a" stroke-width="1"/>

<path d="M 300 214 L 300 194 Q 300 189 309 189 Q 318 189 318 194 L 318 214" fill="none" stroke="#d8b66a" stroke-width="1.6"/>
<line x1="309" y1="189" x2="309" y2="214" stroke="#d8b66a" stroke-width="0.9"/>

<rect x="282" y="186" width="14" height="14" fill="none" stroke="#d8b66a" stroke-width="1.5"/>
<line x1="289" y1="186" x2="289" y2="200" stroke="#d8b66a" stroke-width="0.9"/>
<rect x="276" y="186" width="5" height="14" fill="none" stroke="#d8b66a" stroke-width="1.1"/>
<rect x="297" y="186" width="5" height="14" fill="none" stroke="#d8b66a" stroke-width="1.1"/>

<rect x="330" y="186" width="14" height="14" fill="none" stroke="#d8b66a" stroke-width="1.5"/>
<line x1="337" y1="186" x2="337" y2="200" stroke="#d8b66a" stroke-width="0.9"/>
<rect x="324" y="186" width="5" height="14" fill="none" stroke="#d8b66a" stroke-width="1.1"/>
<rect x="345" y="186" width="5" height="14" fill="none" stroke="#d8b66a" stroke-width="1.1"/>

<path d="M 258 222 Q 291 213 324 222 Q 357 231 390 222 Q 403 217 418 222" fill="none" stroke="#d8b66a" stroke-width="1.8" stroke-linecap="round"/>
</g>

<text x="340" y="245" text-anchor="middle" style="font-family: Georgia, 'Times New Roman', serif; font-weight: 700;" fill="#d8b66a" font-size="14" letter-spacing="1.5">ÎLE D'OLÉRON</text>

<text style="font-family: Georgia, 'Times New Roman', serif; font-weight: 700;" fill="#f7f1e8" font-size="18" letter-spacing="2">
<textPath href="#topArcLogo" startOffset="50%" text-anchor="middle">ESCALE</textPath>
</text>

<text style="font-family: Georgia, 'Times New Roman', serif; font-weight: 700;" fill="#f7f1e8" font-size="18" letter-spacing="2">
<textPath href="#bottomArcLogo" startOffset="50%" text-anchor="middle">À LA COTINIÈRE</textPath>
</text>
</svg>
